# xmcd
#
# Track frame offsets:
#	150
#	18129
#	36956
#	55745
#	74798
#	89966
#	104757
#	119327
#	140331
#	155597
#	170923
#	191883
#	214774
#	234219
#	250796
#
# Disc length: 3601 seconds
#
# Revision: 1
# Processed by: cddbd v1.5.2PL0 Copyright (c) Steve Scherf et al.
# Submitted via: EZCDAudioConverter 3.1.2.1
#
DISCID=e30e0f0f
DTITLE=Melina Merkouri - Playing With Melina/Πειράζοντας τη Μελίνα
DYEAR=2014
DGENRE=Pop/Rock
TTITLE0=Μελίνα Μερκούρη - Αγάπη που 'γινες δίκοπο μαχαίρι [Papercut Remix]
TTITLE1=Μελίνα Μερκούρη - Να με θυμάσαι [Mikro Remix]
TTITLE2=Μελίνα Μερκούρη - Je Te Dirais Les Mots [Marsheaux Remix]
TTITLE3=ΝΤΕΙΒΙΝΤ - Love Love Love
TTITLE4=Μελίνα Μερκούρη - Paname [Olga Kouklaki Remix]
TTITLE5=Μελίνα Μερκούρη - Je Suis Grecque (Είμαι Ρωμιά) [(PH)2 Remix]
TTITLE6=Fadastiki Ihi - The Calling
TTITLE7=Μελίνα Μερκούρη - Αγάπη που 'γινες δίκοπο μαχαίρι [KBHTA Remix]
TTITLE8=Μελίνα Μερκούρη - La Fumee Des Cigarettes (Otan Simvi Sta Perix) [Kid 
TTITLE8=Loco Remix]
TTITLE9=Μελίνα Μερκούρη - Medea Tango [Stavento Remix]
TTITLE10=Μελίνα Μερκούρη - Αστέρι μου φεγγάρι μου (αγάπη μου) [Nikonn Remix]
TTITLE11=Μελίνα Μερκούρη - Paname [Serafim Tsotsonis Remix]
TTITLE12=Niadoka - Melina's Song
TTITLE13=Μελίνα Μερκούρη - Χάρτινο το φεγγαράκι [Cayetano Remix]
TTITLE14=Monsieur Minimal - Μελίνα Μερκούρη
EXTD=
EXTT0=
EXTT1=
EXTT2=
EXTT3=
EXTT4=
EXTT5=
EXTT6=
EXTT7=
EXTT8=
EXTT9=
EXTT10=
EXTT11=
EXTT12=
EXTT13=
EXTT14=
PLAYORDER=
